<svg width="244" height="48" viewBox="0 0 244 48" fill="none" xmlns="http://www.w3.org/2000/svg">
<path d="M23.1667 14.6666H17.8333C17.097 14.6666 16.5 15.2636 16.5 16V21.3333C16.5 22.0697 17.097 22.6666 17.8333 22.6666H23.1667C23.903 22.6666 24.5 22.0697 24.5 21.3333V16C24.5 15.2636 23.903 14.6666 23.1667 14.6666Z" stroke="#333333" stroke-width="2" stroke-linecap="round" stroke-linejoin="round"/>
<path d="M16.5 30.6667L19.1667 33.3333L24.5 28" stroke="#22C55E" stroke-width="2" stroke-linecap="round" stroke-linejoin="round"/>
<path d="M29.8334 16H40.5" stroke="#333333" stroke-width="2" stroke-linecap="round" stroke-linejoin="round"/>
<path d="M29.8334 24H40.5" stroke="#333333" stroke-width="2" stroke-linecap="round" stroke-linejoin="round"/>
<path d="M29.8334 32H40.5" stroke="#333333" stroke-width="2" stroke-linecap="round" stroke-linejoin="round"/>
<path d="M61.54 38V10.76H70.7C73.3933 10.76 75.7667 11.3067 77.82 12.4C79.8733 13.4933 81.4733 15.0667 82.62 17.12C83.7667 19.1467 84.34 21.5867 84.34 24.44C84.34 27.32 83.7533 29.7733 82.58 31.8C81.4333 33.8267 79.8333 35.3733 77.78 36.44C75.7267 37.48 73.3533 38 70.66 38H61.54ZM66.18 34.92L64.62 33.6H70.38C72.1133 33.6 73.66 33.28 75.02 32.64C76.4067 31.9733 77.5 30.9733 78.3 29.64C79.1267 28.28 79.54 26.5467 79.54 24.44C79.54 22.3867 79.14 20.68 78.34 19.32C77.54 17.9333 76.4467 16.8933 75.06 16.2C73.7 15.5067 72.1533 15.16 70.42 15.16H64.34L66.18 13.64V34.92ZM93.7759 38.56C92.2826 38.56 90.9893 38.2933 89.8959 37.76C88.8293 37.2 88.0026 36.4267 87.4159 35.44C86.8293 34.4533 86.5359 33.28 86.5359 31.92C86.5359 30.5867 86.8293 29.4267 87.4159 28.44C88.0293 27.4533 88.8826 26.68 89.9759 26.12C91.0693 25.5333 92.3359 25.24 93.7759 25.24C95.6693 25.24 97.1893 25.6667 98.3359 26.52C99.5093 27.3733 100.309 28.5733 100.736 30.12L98.4159 29.96V25.12C98.4159 24.32 98.1359 23.6 97.5759 22.96C97.0426 22.32 96.1226 22 94.8159 22C94.0693 22 93.2426 22.0933 92.3359 22.28C91.4293 22.44 90.4959 22.7467 89.5359 23.2L88.1359 19.76C89.2559 19.2 90.4293 18.7733 91.6559 18.48C92.9093 18.1867 94.1493 18.04 95.3759 18.04C97.1093 18.04 98.5359 18.36 99.6559 19C100.803 19.6133 101.656 20.4533 102.216 21.52C102.776 22.5867 103.056 23.8133 103.056 25.2V38H99.4959L98.4559 34.36L100.736 33.68C100.283 35.28 99.4426 36.4933 98.2159 37.32C97.0159 38.1467 95.5359 38.56 93.7759 38.56ZM94.8559 34.76C95.9226 34.76 96.7759 34.5067 97.4159 34C98.0826 33.4933 98.4159 32.8 98.4159 31.92C98.4159 30.9867 98.0826 30.28 97.4159 29.8C96.7759 29.2933 95.9226 29.04 94.8559 29.04C93.7893 29.04 92.9226 29.2933 92.2559 29.8C91.6159 30.28 91.2959 30.9867 91.2959 31.92C91.2959 32.8 91.6159 33.4933 92.2559 34C92.9226 34.5067 93.7893 34.76 94.8559 34.76ZM112.378 38H107.738V18.48H112.378V38ZM107.138 12.4C107.138 11.5467 107.391 10.8533 107.898 10.32C108.431 9.76 109.151 9.48 110.058 9.48C110.911 9.48 111.604 9.76 112.138 10.32C112.671 10.8533 112.938 11.5467 112.938 12.4C112.938 13.2533 112.671 13.9467 112.138 14.48C111.604 15.0133 110.911 15.28 110.058 15.28C109.151 15.28 108.431 15.0133 107.898 14.48C107.391 13.9467 107.138 13.2533 107.138 12.4ZM121.467 38.2C120.694 38.2 119.987 38.0267 119.347 37.68C118.707 37.3067 118.201 36.7733 117.827 36.08C117.454 35.36 117.267 34.4533 117.267 33.36V10.76H121.827V31.72C121.827 32.6 122.027 33.1867 122.427 33.48C122.827 33.7733 123.294 33.92 123.827 33.92V37.88C123.507 37.9867 123.134 38.0667 122.707 38.12C122.307 38.1733 121.894 38.2 121.467 38.2ZM132.639 35.88L124.879 18.48H129.679L136.719 34.28L132.639 35.88ZM127.839 45.6L139.959 18.48H144.759L132.639 45.6H127.839Z" fill="#333333"/>
<path d="M147.79 38V10.76H156.95C159.643 10.76 162.017 11.3067 164.07 12.4C166.123 13.4933 167.723 15.0667 168.87 17.12C170.017 19.1467 170.59 21.5867 170.59 24.44C170.59 27.32 170.003 29.7733 168.83 31.8C167.683 33.8267 166.083 35.3733 164.03 36.44C161.977 37.48 159.603 38 156.91 38H147.79ZM152.43 34.92L150.87 33.6H156.63C158.363 33.6 159.91 33.28 161.27 32.64C162.657 31.9733 163.75 30.9733 164.55 29.64C165.377 28.28 165.79 26.5467 165.79 24.44C165.79 22.3867 165.39 20.68 164.59 19.32C163.79 17.9333 162.697 16.8933 161.31 16.2C159.95 15.5067 158.403 15.16 156.67 15.16H150.59L152.43 13.64V34.92ZM180.026 38.56C178.533 38.56 177.239 38.2933 176.146 37.76C175.079 37.2 174.253 36.4267 173.666 35.44C173.079 34.4533 172.786 33.28 172.786 31.92C172.786 30.5867 173.079 29.4267 173.666 28.44C174.279 27.4533 175.133 26.68 176.226 26.12C177.319 25.5333 178.586 25.24 180.026 25.24C181.919 25.24 183.439 25.6667 184.586 26.52C185.759 27.3733 186.559 28.5733 186.986 30.12L184.666 29.96V25.12C184.666 24.32 184.386 23.6 183.826 22.96C183.293 22.32 182.373 22 181.066 22C180.319 22 179.493 22.0933 178.586 22.28C177.679 22.44 176.746 22.7467 175.786 23.2L174.386 19.76C175.506 19.2 176.679 18.7733 177.906 18.48C179.159 18.1867 180.399 18.04 181.626 18.04C183.359 18.04 184.786 18.36 185.906 19C187.053 19.6133 187.906 20.4533 188.466 21.52C189.026 22.5867 189.306 23.8133 189.306 25.2V38H185.746L184.706 34.36L186.986 33.68C186.533 35.28 185.693 36.4933 184.466 37.32C183.266 38.1467 181.786 38.56 180.026 38.56ZM181.106 34.76C182.173 34.76 183.026 34.5067 183.666 34C184.333 33.4933 184.666 32.8 184.666 31.92C184.666 30.9867 184.333 30.28 183.666 29.8C183.026 29.2933 182.173 29.04 181.106 29.04C180.039 29.04 179.173 29.2933 178.506 29.8C177.866 30.28 177.546 30.9867 177.546 31.92C177.546 32.8 177.866 33.4933 178.506 34C179.173 34.5067 180.039 34.76 181.106 34.76ZM200.312 38.48C198.872 38.48 197.485 38.16 196.152 37.52C194.818 36.88 193.672 35.8 192.712 34.28L195.872 31.88C196.672 32.84 197.432 33.5333 198.152 33.96C198.872 34.3867 199.752 34.6 200.792 34.6C201.538 34.6 202.125 34.4133 202.552 34.04C202.978 33.6667 203.192 33.2 203.192 32.64C203.192 32.2667 203.085 31.9333 202.872 31.64C202.658 31.3467 202.258 31.08 201.672 30.84C201.112 30.5733 200.298 30.3067 199.232 30.04C197.258 29.5333 195.752 28.84 194.712 27.96C193.698 27.08 193.192 25.7733 193.192 24.04C193.192 22.9467 193.472 21.9467 194.032 21.04C194.592 20.1067 195.405 19.3733 196.472 18.84C197.538 18.28 198.792 18 200.232 18C201.965 18 203.445 18.3467 204.672 19.04C205.898 19.7333 206.872 20.56 207.592 21.52L204.352 24.08C203.898 23.5733 203.285 23.1067 202.512 22.68C201.765 22.2267 200.858 22 199.792 22C199.152 22 198.578 22.16 198.072 22.48C197.565 22.8 197.312 23.2533 197.312 23.84C197.312 24.4 197.565 24.8667 198.072 25.24C198.578 25.6133 199.538 25.96 200.952 26.28C203.325 26.84 205.018 27.5867 206.032 28.52C207.045 29.4533 207.552 30.68 207.552 32.2C207.552 33.48 207.218 34.6 206.552 35.56C205.885 36.4933 205.005 37.2133 203.912 37.72C202.818 38.2267 201.618 38.48 200.312 38.48ZM211.33 38V10.76H215.97V38H211.33ZM224.17 38V25.84C224.17 24.5333 223.89 23.6667 223.33 23.24C222.796 22.7867 222.13 22.56 221.33 22.56C220.583 22.56 219.81 22.72 219.01 23.04C218.236 23.3333 217.53 23.7467 216.89 24.28C216.25 24.7867 215.73 25.3733 215.33 26.04L214.41 22.08C215.156 21.2533 215.97 20.5467 216.85 19.96C217.73 19.3467 218.663 18.88 219.65 18.56C220.663 18.2133 221.703 18.04 222.77 18.04C224.156 18.04 225.25 18.2667 226.05 18.72C226.85 19.1733 227.45 19.8 227.85 20.6C228.25 21.3733 228.503 22.2533 228.61 23.24C228.743 24.2 228.81 25.2 228.81 26.24V38H224.17Z" fill="#22C55E"/>
</svg>
